<?xml version="1.0" encoding="UTF-8"?>
<svg width="11px" height="20px" viewBox="0 0 11 20" version="1.1" xmlns="http://www.w3.org/2000/svg" xmlns:xlink="http://www.w3.org/1999/xlink">
    <!-- Generator: Sketch 50 (54983) - http://www.bohemiancoding.com/sketch -->
    <title>facebook</title>
    <desc>Created with Sketch.</desc>
    <defs></defs>
    <g id="Page-1" stroke="none" stroke-width="1" fill="none" fill-rule="evenodd">
        <g id="decoupe" transform="translate(-1509.000000, -15008.000000)" fill="#1F242F">
            <path d="M1519.27455,15008.9911 L1519.27455,15011.9375 L1517.52232,15011.9375 C1516.88244,15011.9375 1516.45089,15012.0714 1516.22768,15012.3393 C1516.00446,15012.6071 1515.89286,15013.0089 1515.89286,15013.5446 L1515.89286,15015.654 L1519.16295,15015.654 L1518.72768,15018.9576 L1515.89286,15018.9576 L1515.89286,15027.4286 L1512.47768,15027.4286 L1512.47768,15018.9576 L1509.6317,15018.9576 L1509.6317,15015.654 L1512.47768,15015.654 L1512.47768,15013.221 C1512.47768,15011.837 1512.86458,15010.7638 1513.63839,15010.0011 C1514.41221,15009.2385 1515.4427,15008.8571 1516.72991,15008.8571 C1517.82367,15008.8571 1518.67187,15008.9018 1519.27455,15008.9911 Z" id="facebook"></path>
        </g>
    </g>
</svg>