<?xml version="1.0" encoding="UTF-8"?>
<svg width="18px" height="18px" viewBox="0 0 18 18" version="1.1" xmlns="http://www.w3.org/2000/svg" xmlns:xlink="http://www.w3.org/1999/xlink">
    <!-- Generator: Sketch 50 (54983) - http://www.bohemiancoding.com/sketch -->
    <title>intagram</title>
    <desc>Created with Sketch.</desc>
    <defs></defs>
    <g id="Page-1" stroke="none" stroke-width="1" fill="none" fill-rule="evenodd">
        <g id="decoupe" transform="translate(-1589.000000, -15010.000000)" fill="#ffffff">
            <path d="M1600.44866,15020.8772 C1601.0067,15020.3192 1601.28571,15019.6458 1601.28571,15018.8571 C1601.28571,15018.0684 1601.0067,15017.3951 1600.44866,15016.8371 C1599.89062,15016.279 1599.21727,15016 1598.42857,15016 C1597.63988,15016 1596.96652,15016.279 1596.40848,15016.8371 C1595.85044,15017.3951 1595.57143,15018.0684 1595.57143,15018.8571 C1595.57143,15019.6458 1595.85044,15020.3192 1596.40848,15020.8772 C1596.96652,15021.4353 1597.63988,15021.7143 1598.42857,15021.7143 C1599.21727,15021.7143 1599.89062,15021.4353 1600.44866,15020.8772 Z M1601.54241,15015.7433 C1602.39807,15016.599 1602.82589,15017.6369 1602.82589,15018.8571 C1602.82589,15020.0774 1602.39807,15021.1153 1601.54241,15021.971 C1600.68675,15022.8266 1599.64882,15023.2545 1598.42857,15023.2545 C1597.20833,15023.2545 1596.17039,15022.8266 1595.31473,15021.971 C1594.45907,15021.1153 1594.03125,15020.0774 1594.03125,15018.8571 C1594.03125,15017.6369 1594.45907,15016.599 1595.31473,15015.7433 C1596.17039,15014.8876 1597.20833,15014.4598 1598.42857,15014.4598 C1599.64882,15014.4598 1600.68675,15014.8876 1601.54241,15015.7433 Z M1603.72991,15013.5558 C1603.9308,15013.7567 1604.03125,15013.9985 1604.03125,15014.2812 C1604.03125,15014.564 1603.9308,15014.8058 1603.72991,15015.0067 C1603.52902,15015.2076 1603.2872,15015.308 1603.00446,15015.308 C1602.72172,15015.308 1602.47991,15015.2076 1602.27902,15015.0067 C1602.07812,15014.8058 1601.97768,15014.564 1601.97768,15014.2812 C1601.97768,15013.9985 1602.07812,15013.7567 1602.27902,15013.5558 C1602.47991,15013.3549 1602.72172,15013.2545 1603.00446,15013.2545 C1603.2872,15013.2545 1603.52902,15013.3549 1603.72991,15013.5558 Z M1599.27679,15011.8259 L1598.42857,15011.8259 C1598.37649,15011.8259 1598.09189,15011.824 1597.57478,15011.8203 C1597.05766,15011.8166 1596.66518,15011.8166 1596.39732,15011.8203 C1596.12946,15011.824 1595.77046,15011.8352 1595.32031,15011.8538 C1594.87016,15011.8724 1594.48698,15011.9096 1594.17076,15011.9654 C1593.85454,15012.0212 1593.58854,15012.09 1593.37277,15012.1719 C1593.00074,15012.3207 1592.67336,15012.5365 1592.39062,15012.8192 C1592.10789,15013.1019 1591.89211,15013.4293 1591.7433,15013.8013 C1591.66146,15014.0171 1591.59263,15014.2831 1591.53683,15014.5993 C1591.48103,15014.9156 1591.44382,15015.2987 1591.42522,15015.7489 C1591.40662,15016.199 1591.39546,15016.558 1591.39174,15016.8259 C1591.38802,15017.0938 1591.38802,15017.4862 1591.39174,15018.0033 C1591.39546,15018.5205 1591.39732,15018.8051 1591.39732,15018.8571 C1591.39732,15018.9092 1591.39546,15019.1938 1591.39174,15019.7109 C1591.38802,15020.2281 1591.38802,15020.6205 1591.39174,15020.8884 C1591.39546,15021.1563 1591.40662,15021.5153 1591.42522,15021.9654 C1591.44382,15022.4156 1591.48103,15022.7987 1591.53683,15023.115 C1591.59263,15023.4312 1591.66146,15023.6972 1591.7433,15023.9129 C1591.89211,15024.285 1592.10789,15024.6123 1592.39062,15024.8951 C1592.67336,15025.1778 1593.00074,15025.3936 1593.37277,15025.5424 C1593.58854,15025.6243 1593.85454,15025.6931 1594.17076,15025.7489 C1594.48698,15025.8047 1594.87016,15025.8419 1595.32031,15025.8605 C1595.77046,15025.8791 1596.12946,15025.8903 1596.39732,15025.894 C1596.66518,15025.8977 1597.05766,15025.8977 1597.57478,15025.894 C1598.09189,15025.8903 1598.37649,15025.8884 1598.42857,15025.8884 C1598.48066,15025.8884 1598.76525,15025.8903 1599.28237,15025.894 C1599.79948,15025.8977 1600.19196,15025.8977 1600.45982,15025.894 C1600.72768,15025.8903 1601.08668,15025.8791 1601.53683,15025.8605 C1601.98698,15025.8419 1602.37016,15025.8047 1602.68638,15025.7489 C1603.00261,15025.6931 1603.2686,15025.6243 1603.48438,15025.5424 C1603.8564,15025.3936 1604.18378,15025.1778 1604.46652,15024.8951 C1604.74926,15024.6123 1604.96503,15024.285 1605.11384,15023.9129 C1605.19568,15023.6972 1605.26451,15023.4312 1605.32031,15023.115 C1605.37612,15022.7987 1605.41332,15022.4156 1605.43192,15021.9654 C1605.45052,15021.5153 1605.46168,15021.1563 1605.4654,15020.8884 C1605.46912,15020.6205 1605.46912,15020.2281 1605.4654,15019.7109 C1605.46168,15019.1938 1605.45982,15018.9092 1605.45982,15018.8571 C1605.45982,15018.8051 1605.46168,15018.5205 1605.4654,15018.0033 C1605.46912,15017.4862 1605.46912,15017.0938 1605.4654,15016.8259 C1605.46168,15016.558 1605.45052,15016.199 1605.43192,15015.7489 C1605.41332,15015.2987 1605.37612,15014.9156 1605.32031,15014.5993 C1605.26451,15014.2831 1605.19568,15014.0171 1605.11384,15013.8013 C1604.96503,15013.4293 1604.74926,15013.1019 1604.46652,15012.8192 C1604.18378,15012.5365 1603.8564,15012.3207 1603.48438,15012.1719 C1603.2686,15012.09 1603.00261,15012.0212 1602.68638,15011.9654 C1602.37016,15011.9096 1601.98698,15011.8724 1601.53683,15011.8538 C1601.08668,15011.8352 1600.72768,15011.824 1600.45982,15011.8203 C1600.19196,15011.8166 1599.79762,15011.8185 1599.27679,15011.8259 Z M1606.9442,15015.3192 C1606.9814,15015.974 1607,15017.1533 1607,15018.8571 C1607,15020.561 1606.9814,15021.7403 1606.9442,15022.3951 C1606.86979,15023.9427 1606.40849,15025.1406 1605.56027,15025.9888 C1604.71205,15026.8371 1603.51414,15027.2984 1601.96652,15027.3728 C1601.31175,15027.41 1600.13245,15027.4286 1598.42857,15027.4286 C1596.72469,15027.4286 1595.54539,15027.41 1594.89062,15027.3728 C1593.343,15027.2984 1592.14509,15026.8371 1591.29688,15025.9888 C1590.44866,15025.1406 1589.98735,15023.9427 1589.91295,15022.3951 C1589.87574,15021.7403 1589.85714,15020.561 1589.85714,15018.8571 C1589.85714,15017.1533 1589.87574,15015.974 1589.91295,15015.3192 C1589.98735,15013.7716 1590.44866,15012.5737 1591.29688,15011.7254 C1592.14509,15010.8772 1593.343,15010.4159 1594.89062,15010.3415 C1595.54539,15010.3043 1596.72469,15010.2857 1598.42857,15010.2857 C1600.13245,15010.2857 1601.31175,15010.3043 1601.96652,15010.3415 C1603.51414,15010.4159 1604.71205,15010.8772 1605.56027,15011.7254 C1606.40849,15012.5737 1606.86979,15013.7716 1606.9442,15015.3192 Z" id="intagram"></path>
        </g>
    </g>
</svg>
