<?xml version="1.0" encoding="UTF-8"?>
<svg width="18px" height="17px" viewBox="0 0 18 17" version="1.1" xmlns="http://www.w3.org/2000/svg" xmlns:xlink="http://www.w3.org/1999/xlink">
    <!-- Generator: Sketch 50 (54983) - http://www.bohemiancoding.com/sketch -->
    <title>linkedin</title>
    <desc>Created with Sketch.</desc>
    <defs></defs>
    <g id="Page-1" stroke="none" stroke-width="1" fill="none" fill-rule="evenodd">
        <g id="decoupe" transform="translate(-1635.000000, -15010.000000)" fill="#1F242F">
            <path d="M1639.75223,15015.8326 L1639.75223,15026.8929 L1636.0692,15026.8929 L1636.0692,15015.8326 L1639.75223,15015.8326 Z M1639.98661,15012.4174 C1639.99405,15012.9606 1639.80618,15013.4144 1639.42299,15013.779 C1639.0398,15014.1436 1638.53572,15014.3259 1637.91071,15014.3259 L1637.88839,15014.3259 C1637.27827,15014.3259 1636.7872,15014.1436 1636.41518,15013.779 C1636.04315,15013.4144 1635.85714,15012.9606 1635.85714,15012.4174 C1635.85714,15011.8668 1636.04873,15011.4111 1636.43192,15011.0502 C1636.81511,15010.6894 1637.31547,15010.5089 1637.93304,15010.5089 C1638.5506,15010.5089 1639.04539,15010.6894 1639.41741,15011.0502 C1639.78944,15011.4111 1639.97917,15011.8668 1639.98661,15012.4174 Z M1645.45536,15017.4043 C1645.59709,15017.1809 1645.74218,15016.9844 1645.89062,15016.8147 C1646.04688,15016.6362 1646.25707,15016.4427 1646.52121,15016.2344 C1646.78534,15016.026 1647.109,15015.8642 1647.49219,15015.7489 C1647.87537,15015.6336 1648.30134,15015.5759 1648.77009,15015.5759 C1650.04242,15015.5759 1651.06547,15015.9981 1651.83929,15016.8426 C1652.6131,15017.6871 1653,15018.9241 1653,15020.5536 L1653,15026.8929 L1649.32812,15026.8929 L1649.32812,15020.9777 C1649.32812,15020.1964 1649.17746,15019.5845 1648.87612,15019.1417 C1648.57478,15018.699 1648.10417,15018.4777 1647.46429,15018.4777 C1646.99553,15018.4777 1646.60305,15018.606 1646.28683,15018.8627 C1645.97061,15019.1194 1645.73438,15019.4375 1645.57812,15019.817 C1645.49628,15020.0402 1645.45536,15020.3415 1645.45536,15020.721 L1645.45536,15026.8929 L1641.78348,15026.8929 C1641.79836,15023.9241 1641.8058,15021.5171 1641.8058,15019.6719 C1641.8058,15017.8266 1641.80208,15016.7254 1641.79464,15016.3683 L1641.78348,15015.8326 L1645.45536,15015.8326 L1645.45536,15017.4043 Z" id="linkedin"></path>
        </g>
    </g>
</svg>