<?xml version="1.0" encoding="UTF-8"?>
<svg width="18px" height="15px" viewBox="0 0 18 15" version="1.1" xmlns="http://www.w3.org/2000/svg" xmlns:xlink="http://www.w3.org/1999/xlink">
    <!-- Generator: Sketch 50 (54983) - http://www.bohemiancoding.com/sketch -->
    <title>twitter</title>
    <desc>Created with Sketch.</desc>
    <defs></defs>
    <g id="Page-1" stroke="none" stroke-width="1" fill="none" fill-rule="evenodd">
        <g id="decoupe" transform="translate(-1543.000000, -15011.000000)" fill="#ffffff">
            <path d="M1560.50893,15013.4107 C1560.01041,15014.1399 1559.40774,15014.7612 1558.70089,15015.2746 C1558.70833,15015.3787 1558.71205,15015.535 1558.71205,15015.7433 C1558.71205,15016.7106 1558.57069,15017.676 1558.28795,15018.6395 C1558.00521,15019.6031 1557.57552,15020.5275 1556.99888,15021.4129 C1556.42224,15022.2984 1555.73587,15023.0815 1554.93973,15023.7623 C1554.1436,15024.4431 1553.18379,15024.9862 1552.06027,15025.3917 C1550.93675,15025.7972 1549.73513,15026 1548.45536,15026 C1546.43898,15026 1544.59376,15025.4606 1542.91964,15024.3817 C1543.18006,15024.4115 1543.47024,15024.4263 1543.79018,15024.4263 C1545.46429,15024.4263 1546.95609,15023.913 1548.26562,15022.8862 C1547.48437,15022.8713 1546.78497,15022.6313 1546.16741,15022.1663 C1545.54985,15021.7013 1545.12575,15021.1079 1544.89509,15020.3862 C1545.14063,15020.4234 1545.36756,15020.442 1545.57589,15020.442 C1545.89583,15020.442 1546.21205,15020.401 1546.52455,15020.3192 C1545.69122,15020.1481 1545.00112,15019.7333 1544.45424,15019.0748 C1543.90736,15018.4163 1543.63393,15017.6518 1543.63393,15016.7812 L1543.63393,15016.7366 C1544.13988,15017.0193 1544.68303,15017.1719 1545.26339,15017.1942 C1544.77232,15016.8668 1544.3817,15016.439 1544.09152,15015.9107 C1543.80134,15015.3824 1543.65625,15014.8095 1543.65625,15014.192 C1543.65625,15013.5372 1543.81994,15012.9308 1544.14732,15012.3728 C1545.04762,15013.4814 1546.14322,15014.3687 1547.43415,15015.0346 C1548.72508,15015.7005 1550.10714,15016.0707 1551.58036,15016.1451 C1551.52083,15015.8623 1551.49107,15015.5871 1551.49107,15015.3192 C1551.49107,15014.3222 1551.84263,15013.4721 1552.54576,15012.769 C1553.24889,15012.0658 1554.09895,15011.7143 1555.09598,15011.7143 C1556.13765,15011.7143 1557.01562,15012.0937 1557.72991,15012.8527 C1558.54093,15012.6964 1559.30357,15012.4063 1560.01786,15011.9821 C1559.74256,15012.8378 1559.21429,15013.5 1558.43304,15013.9688 C1559.125,15013.8943 1559.81696,15013.7083 1560.50893,15013.4107 Z" id="twitter"></path>
        </g>
    </g>
</svg>
